<mxfile host="65bd71144e">
    <diagram id="xjZls5xY_gCA0Fz9rvfN" name="exibindo-alerta">
        <mxGraphModel dx="660" dy="389" grid="1" gridSize="10" guides="1" tooltips="1" connect="1" arrows="1" fold="1" page="1" pageScale="1" pageWidth="827" pageHeight="1169" math="0" shadow="0">
            <root>
                <mxCell id="0"/>
                <mxCell id="1" parent="0"/>
                <mxCell id="2" value="Usuário" style="shape=umlActor;verticalLabelPosition=bottom;verticalAlign=top;html=1;outlineConnect=0;" vertex="1" parent="1">
                    <mxGeometry x="90" y="410" width="30" height="60" as="geometry"/>
                </mxCell>
                <mxCell id="5" value="Acessar Página Web" style="whiteSpace=wrap;html=1;verticalAlign=top;" vertex="1" parent="1">
                    <mxGeometry x="155" y="410" width="120" height="60" as="geometry"/>
                </mxCell>
                <mxCell id="7" value="Clicar No Elemento que Deseja Selecionar" style="whiteSpace=wrap;html=1;verticalAlign=top;" vertex="1" parent="1">
                    <mxGeometry x="155" y="500" width="120" height="60" as="geometry"/>
                </mxCell>
                <mxCell id="8" value="" style="endArrow=none;dashed=1;html=1;dashPattern=1 3;strokeWidth=2;exitX=0.54;exitY=-0.033;exitDx=0;exitDy=0;exitPerimeter=0;" edge="1" parent="1" source="7">
                    <mxGeometry width="50" height="50" relative="1" as="geometry">
                        <mxPoint x="170" y="520" as="sourcePoint"/>
                        <mxPoint x="220" y="470" as="targetPoint"/>
                    </mxGeometry>
                </mxCell>
                <mxCell id="9" value="" style="endArrow=none;dashed=1;html=1;" edge="1" parent="1">
                    <mxGeometry width="50" height="50" relative="1" as="geometry">
                        <mxPoint x="110" y="450" as="sourcePoint"/>
                        <mxPoint x="150" y="450" as="targetPoint"/>
                    </mxGeometry>
                </mxCell>
                <mxCell id="10" value="Opções de Elementos a serem selecionados" style="shape=parallelogram;perimeter=parallelogramPerimeter;whiteSpace=wrap;html=1;fixedSize=1;" vertex="1" parent="1">
                    <mxGeometry x="420" y="525" width="120" height="60" as="geometry"/>
                </mxCell>
                <mxCell id="13" value="" style="edgeStyle=none;html=1;" edge="1" parent="1" source="11" target="10">
                    <mxGeometry relative="1" as="geometry"/>
                </mxCell>
                <mxCell id="11" value="Detalhes da Página HTML" style="rounded=0;whiteSpace=wrap;html=1;" vertex="1" parent="1">
                    <mxGeometry x="420" y="420" width="120" height="60" as="geometry"/>
                </mxCell>
                <mxCell id="14" value="Início" style="rounded=1;whiteSpace=wrap;html=1;" vertex="1" parent="1">
                    <mxGeometry x="660" y="310" width="120" height="60" as="geometry"/>
                </mxCell>
                <mxCell id="19" value="" style="edgeStyle=none;html=1;" edge="1" parent="1" source="17" target="18">
                    <mxGeometry relative="1" as="geometry"/>
                </mxCell>
                <mxCell id="17" value="Atribuir as opções que o usuário pode selecionar e adicionar o elemento a ser executado caso seja clicado" style="shape=parallelogram;perimeter=parallelogramPerimeter;whiteSpace=wrap;html=1;fixedSize=1;" vertex="1" parent="1">
                    <mxGeometry x="660" y="410" width="120" height="60" as="geometry"/>
                </mxCell>
                <mxCell id="kbFzZBGerDFTH1wOzHqc-20" value="" style="edgeStyle=none;html=1;" edge="1" parent="1" source="18" target="kbFzZBGerDFTH1wOzHqc-19">
                    <mxGeometry relative="1" as="geometry"/>
                </mxCell>
                <mxCell id="18" value="exibirAlerta" style="whiteSpace=wrap;html=1;" vertex="1" parent="1">
                    <mxGeometry x="660" y="520" width="120" height="60" as="geometry"/>
                </mxCell>
                <mxCell id="kbFzZBGerDFTH1wOzHqc-19" value="Fim" style="rounded=1;whiteSpace=wrap;html=1;" vertex="1" parent="1">
                    <mxGeometry x="660" y="620" width="120" height="60" as="geometry"/>
                </mxCell>
                <mxCell id="kbFzZBGerDFTH1wOzHqc-21" value="" style="endArrow=none;dashed=1;html=1;dashPattern=1 3;strokeWidth=2;entryX=0;entryY=0;entryDx=0;entryDy=0;" edge="1" parent="1" target="10">
                    <mxGeometry width="50" height="50" relative="1" as="geometry">
                        <mxPoint x="290" y="530" as="sourcePoint"/>
                        <mxPoint x="440" y="520" as="targetPoint"/>
                    </mxGeometry>
                </mxCell>
                <mxCell id="kbFzZBGerDFTH1wOzHqc-22" value="" style="endArrow=none;dashed=1;html=1;dashPattern=1 3;strokeWidth=2;" edge="1" parent="1">
                    <mxGeometry width="50" height="50" relative="1" as="geometry">
                        <mxPoint x="550" y="530" as="sourcePoint"/>
                        <mxPoint x="650" y="530" as="targetPoint"/>
                    </mxGeometry>
                </mxCell>
            </root>
        </mxGraphModel>
    </diagram>
</mxfile>